<svg class="MuiSvgIcon-root MuiSvgIcon-fontSizeMedium mui-8mcbwj" focusable="false" aria-hidden="true" data-testid="ReceiptIcon" data-sentry-element="svg" data-sentry-source-file="ReceiptIcon.tsx" data-sentry-component="ReceiptIcon" fill="none" height="24" viewBox="0 0 24 24" width="24" xmlns="http://www.w3.org/2000/svg"><path d="M7 7.50018H17V6.50018H7V7.50018Z" fill="currentColor" data-sentry-element="path" data-sentry-source-file="ReceiptIcon.tsx"></path><path d="M17 10.5002H7V9.50018H17V10.5002Z" fill="currentColor" data-sentry-element="path" data-sentry-source-file="ReceiptIcon.tsx"></path><path d="M7 13.5002H12.5V12.5002H7V13.5002Z" fill="currentColor" data-sentry-element="path" data-sentry-source-file="ReceiptIcon.tsx"></path><path clip-rule="evenodd" d="M12 22.6405L9.5 20.6405L7.02685 22.619L3.5 20.2678V3.73258L7.02685 1.38135L9.5 3.35986L12 1.35986L14.5 3.35986L16.9731 1.38135L20.5 3.73258V20.2678L16.9731 22.619L14.5 20.6405L12 22.6405ZM4.5 19.7326L6.97315 21.3813L9.5 19.3599L12 21.3599L14.5 19.3599L17.0269 21.3813L19.5 19.7326V4.26777L17.0269 2.619L14.5 4.64049L12 2.64049L9.5 4.64049L6.97315 2.619L4.5 4.26777V19.7326Z" fill="currentColor" fill-rule="evenodd" data-sentry-element="path" data-sentry-source-file="ReceiptIcon.tsx"></path></svg>