<svg fill="none" height="24" viewBox="0 0 24 24" width="24" xmlns="http://www.w3.org/2000/svg" data-sentry-element="svg" data-sentry-component="CartIcon" data-sentry-source-file="CartIcon.tsx"><path d="M8.18896 17.8546C6.98428 17.8546 6.00936 18.8296 6.00936 20.0342C6.00936 21.2388 6.98436 22.2138 8.18896 22.2138C9.39356 22.2138 10.3686 21.2388 10.3686 20.0342C10.3639 18.8295 9.38888 17.8546 8.18896 17.8546ZM8.18896 21.2764C7.50458 21.2764 6.94678 20.7186 6.94678 20.0342C6.94678 19.3498 7.5046 18.792 8.18896 18.792C8.87332 18.792 9.43114 19.3498 9.43114 20.0342C9.43114 20.7186 8.87332 21.2764 8.18896 21.2764Z" fill="currentColor" data-sentry-element="path" data-sentry-source-file="CartIcon.tsx"></path><path d="M17.475 17.8546C16.2703 17.8546 15.2954 18.8296 15.2954 20.0342C15.2954 21.2388 16.2704 22.2138 17.475 22.2138C18.6796 22.2138 19.6546 21.2388 19.6546 20.0342C19.6546 18.8296 18.6796 17.8546 17.475 17.8546ZM17.475 21.2764C16.7906 21.2764 16.2328 20.7186 16.2328 20.0342C16.2328 19.3498 16.7906 18.792 17.475 18.792C18.1593 18.792 18.7171 19.3498 18.7171 20.0342C18.7171 20.7186 18.1593 21.2764 17.475 21.2764Z" fill="currentColor" data-sentry-element="path" data-sentry-source-file="CartIcon.tsx"></path><path d="M22.154 4.86557C22.1211 4.8562 22.0883 4.85151 22.0508 4.85151L6.10864 4.61245L5.6727 3.28589C5.37738 2.39057 4.54302 1.78589 3.6009 1.78589H1.95558C1.69776 1.78589 1.48682 1.99683 1.48682 2.25465C1.48682 2.51247 1.69776 2.72341 1.95558 2.72341H3.6009C4.13996 2.72341 4.6134 3.07029 4.78214 3.58123L7.88526 12.9516L7.65558 13.5094C7.1962 14.6156 7.72589 15.886 8.83214 16.3454C9.09932 16.4532 9.38058 16.5095 9.6712 16.5095H19.1868C19.4446 16.5095 19.6556 16.2985 19.6556 16.0407C19.6556 15.7829 19.4446 15.572 19.1868 15.572H9.6712C8.99152 15.5766 8.4337 15.0282 8.42902 14.3485C8.42902 14.1845 8.46183 14.0204 8.52277 13.8657L8.70089 13.4298L18.9993 12.3751C20.129 12.2579 21.0571 11.4423 21.3243 10.3407L22.5009 5.42827C22.5618 5.17983 22.4071 4.92651 22.154 4.86557ZM20.4149 10.1202C20.2415 10.8374 19.6368 11.3624 18.9055 11.4374L8.71492 12.4827L6.42272 5.55447L21.4509 5.77947L20.4149 10.1202Z" fill="currentColor" data-sentry-element="path" data-sentry-source-file="CartIcon.tsx"></path></svg>