<svg fill="none" height="16" viewBox="0 0 18 16" width="18" xmlns="http://www.w3.org/2000/svg" aria-label="Download" data-sentry-element="svg" data-sentry-component="DownloadIcon" data-sentry-source-file="DownloadIcon.tsx"><path clip-rule="evenodd" d="M5.81145 8.32215C5.69458 8.18948 5.65618 8.00502 5.71054 7.83673C5.76485 7.66846 5.90382 7.54125 6.07623 7.50201C6.24869 7.46278 6.42903 7.51725 6.55082 7.64545L8.81137 10.1148V0.991687C8.81483 0.814869 8.91111 0.653012 9.06481 0.565553C9.21853 0.478149 9.40689 0.478149 9.5606 0.565553C9.71426 0.653013 9.81059 0.814869 9.81399 0.991687V10.1148L12.0745 7.64545C12.1959 7.51541 12.3772 7.45948 12.5507 7.4985C12.7243 7.53746 12.8642 7.66554 12.9184 7.835C12.9725 8.00445 12.9327 8.18992 12.8139 8.3223L9.68233 11.7429C9.58751 11.8468 9.45333 11.906 9.31262 11.906C9.17197 11.906 9.0378 11.8468 8.94297 11.7429L5.81145 8.32215ZM16.8317 9.47933C16.6988 9.47938 16.5713 9.53229 16.4774 9.62628C16.3834 9.72033 16.3305 9.84781 16.3305 9.9807V14.553H1.66925V9.9807C1.66579 9.80394 1.56951 9.64203 1.4158 9.55463C1.26209 9.46722 1.07373 9.46722 0.920015 9.55463C0.766359 9.64203 0.670027 9.80394 0.666627 9.9807V15.0529C0.666403 15.186 0.719148 15.3136 0.813139 15.4078C0.907184 15.5019 1.03478 15.5548 1.16783 15.5547H16.8321C16.965 15.5548 17.0925 15.5021 17.1866 15.4082C17.2805 15.3143 17.3333 15.1867 17.3333 15.0538V9.98079C17.3332 9.8479 17.2804 9.72041 17.1864 9.62642C17.0925 9.53244 16.965 9.47953 16.8321 9.47941L16.8317 9.47933Z" fill="#FAFAFA" fill-opacity="0.56" fill-rule="evenodd" data-sentry-element="path" data-sentry-source-file="DownloadIcon.tsx"></path></svg>