<svg fill="none" height="24" viewBox="0 0 24 24" width="24" xmlns="http://www.w3.org/2000/svg" data-sentry-element="svg" data-sentry-component="GearIcon" data-sentry-source-file="GearIcon.tsx"><path clip-rule="evenodd" d="M11.9995 8.5C10.0665 8.5 8.49954 10.067 8.49954 12C8.49954 13.933 10.0665 15.5 11.9995 15.5C13.9325 15.5 15.4995 13.933 15.4995 12C15.4995 10.067 13.9325 8.5 11.9995 8.5ZM9.49954 12C9.49954 10.6193 10.6188 9.5 11.9995 9.5C13.3802 9.5 14.4995 10.6193 14.4995 12C14.4995 13.3807 13.3802 14.5 11.9995 14.5C10.6188 14.5 9.49954 13.3807 9.49954 12Z" fill="currentColor" fill-rule="evenodd" data-sentry-element="path" data-sentry-source-file="GearIcon.tsx"></path><path clip-rule="evenodd" d="M9.58967 2.5L9.07098 5.09345C8.50259 5.33475 7.97028 5.64405 7.48424 6.01103L4.97729 5.16296L2.56738 9.33703L4.55502 11.0838C4.5184 11.3843 4.49957 11.69 4.49957 12C4.49957 12.31 4.5184 12.6157 4.55502 12.9162L2.56738 14.663L4.97728 18.837L7.48423 17.989C7.97027 18.3559 8.50258 18.6653 9.07098 18.9066L9.58967 21.5H14.4095L14.9282 18.9066C15.4966 18.6653 16.0289 18.3559 16.5149 17.989L19.0219 18.837L21.4318 14.663L19.4441 12.9162C19.4807 12.6157 19.4996 12.31 19.4996 12C19.4996 11.69 19.4807 11.3843 19.4441 11.0838L21.4318 9.33703L19.0219 5.16296L16.5149 6.01103C16.0289 5.64405 15.4966 5.33475 14.9282 5.09345L14.4095 2.5H9.58967ZM10.4095 3.5H13.5897L14.0547 5.82521L14.3128 5.92354C14.9664 6.17251 15.5698 6.5241 16.1032 6.95885L16.3175 7.1335L18.5657 6.37293L20.1558 9.12706L18.3742 10.6928L18.4177 10.9652C18.4716 11.3019 18.4996 11.6475 18.4996 12C18.4996 12.3525 18.4716 12.6981 18.4177 13.0348L18.3742 13.3072L20.1558 14.8729L18.5657 17.6271L16.3175 16.8665L16.1032 17.0411C15.5698 17.4759 14.9664 17.8275 14.3128 18.0765L14.0547 18.1748L13.5897 20.5H10.4095L9.94443 18.1748L9.6863 18.0765C9.0327 17.8275 8.42933 17.4759 7.89595 17.0411L7.68168 16.8665L5.43341 17.6271L3.84331 14.8729L5.62496 13.3072L5.58141 13.0348C5.52758 12.6981 5.49957 12.3525 5.49957 12C5.49957 11.6475 5.52758 11.3019 5.58141 10.9652L5.62496 10.6928L3.84331 9.12706L5.43341 6.37293L7.68169 7.13349L7.89596 6.95884C8.42934 6.5241 9.03271 6.17251 9.6863 5.92354L9.94443 5.82521L10.4095 3.5Z" fill="currentColor" fill-rule="evenodd" data-sentry-element="path" data-sentry-source-file="GearIcon.tsx"></path></svg>