<svg class="MuiSvgIcon-root MuiSvgIcon-fontSizeMedium mui-8mcbwj" focusable="false" aria-hidden="true" data-testid="DishIcon" data-sentry-element="svg" data-sentry-source-file="DishIcon.tsx" data-sentry-component="DishIcon" xmlns="http://www.w3.org/2000/svg"><g fill="none" height="24" id="Dish" width="24" data-sentry-element="g" data-sentry-source-file="DishIcon.tsx"><path d="M1 14.5V9.5L15 23.5H10L1 14.5Z" stroke="currentColor" data-sentry-element="path" data-sentry-source-file="DishIcon.tsx"></path><path d="M16.5 8.5C16.5 8.77614 16.2761 9 16 9C15.7239 9 15.5 8.77614 15.5 8.5C15.5 8.22386 15.7239 8 16 8C16.2761 8 16.5 8.22386 16.5 8.5Z" stroke="currentColor" data-sentry-element="path" data-sentry-source-file="DishIcon.tsx"></path><path d="M12.5 12.5C12.5 12.7761 12.2761 13 12 13C11.7239 13 11.5 12.7761 11.5 12.5C11.5 12.2239 11.7239 12 12 12C12.2761 12 12.5 12.2239 12.5 12.5Z" stroke="currentColor" data-sentry-element="path" data-sentry-source-file="DishIcon.tsx"></path><path d="M20.5 4.5C20.5 4.77614 20.2761 5 20 5C19.7239 5 19.5 4.77614 19.5 4.5C19.5 4.22386 19.7239 4 20 4C20.2761 4 20.5 4.22386 20.5 4.5Z" stroke="currentColor" data-sentry-element="path" data-sentry-source-file="DishIcon.tsx"></path></g></svg>